<svg id="Layer_1" height="512" viewBox="0 0 512 512" width="512" xmlns="http://www.w3.org/2000/svg" data-name="Layer 1"><path d="m421.41 385.98v73.64h-33.09v-74.07h-10.02v-45.07l17.31 7.39a46.96 46.96 0 0 1 25.8 38.11z" fill="#f8ec7d"/><path d="m368.9 155.02h-139.47-20.86-17.76v-25.49h13.28 194.01 13.28v25.49h-18.2z" fill="#e48e66"/><path d="m261.46 295.24a88.141 88.141 0 0 1 -48.65-78.77v-.14a22.453 22.453 0 0 1 -17.89-27.43 16.888 16.888 0 0 1 15.1-12.85l.1-.02a7.243 7.243 0 0 0 3.75 4.79l10.55 5.41a1.809 1.809 0 0 0 2.63-1.46l2.38-29.75h139.47a131.665 131.665 0 0 0 4.35 16.58l5.31 15.94a1.809 1.809 0 0 0 2.95.75l7.41-6.92a8.911 8.911 0 0 0 2.77-5.32h.04a16.889 16.889 0 0 1 15.04 12.85 22.423 22.423 0 0 1 -17.84 27.42v.15a88.094 88.094 0 0 1 -127.47 78.77z" fill="#f7caa5"/><path d="m398.1 128.49v1.04h-194.01v-.87c0-40.95 22.66-76.84 55.43-93.46v12.39a59.9 59.9 0 0 0 41.37 56.96l1.36.45a59.9 59.9 0 0 0 40.41-56.64v-13.18c32.77 16.58 55.44 52.34 55.44 93.31z" fill="#f8ec7d"/><path d="m393.18 155.02-1.41 20.37c-.02.22-.04.44-.08.66a8.911 8.911 0 0 1 -2.77 5.32l-7.41 6.92a1.809 1.809 0 0 1 -2.95-.75l-5.31-15.94a131.665 131.665 0 0 1 -4.35-16.58z" fill="#4b5d63"/><path d="m388.32 385.55v74.07h-153.39c14.38-14.88 25.61-34.98 25.61-61.43v-12.64z" fill="#e48e66"/><path d="m378.3 340.48v45.07h-20.06v-53.63z" fill="#cc7350"/><path d="m358.24 331.92v53.63h-97.7v-48.92l-.56-.24q-6.5-2.79-12.89-5.81l14.19-6.05a89.683 89.683 0 0 0 79.63 0z" fill="#f8ec7d"/><path d="m342.66 35.18v13.18a59.9 59.9 0 0 1 -40.41 56.64l-1.36-.45a59.9 59.9 0 0 1 -41.37-56.96v-12.39a90.666 90.666 0 0 1 17.84-6.83l-1.29-12.37h50.04l-1.28 12.37a91.386 91.386 0 0 1 17.83 6.81z" fill="#cc7350"/><path d="m340.73 324.45.18.08a89.683 89.683 0 0 1 -79.63 0l.18-.08v-29.21a88.222 88.222 0 0 0 79.27-.23z" fill="#edb288"/><path d="m234.93 459.62c-25.49 26.39-60.84 36.38-60.84 36.38s-83.5-24.42-83.5-97.81v-61.56l.56-.24a413.17 413.17 0 0 0 43.66-21.93 411.906 411.906 0 0 0 40.75-26.95 412.052 412.052 0 0 0 71.53 43.07q6.39 3.015 12.89 5.81l.56.24v61.56c0 26.45-11.23 46.55-25.61 61.43z" fill="#6fe3ff"/><path d="m229.43 155.02-2.38 29.75a1.809 1.809 0 0 1 -2.63 1.46l-10.55-5.41a7.243 7.243 0 0 1 -3.75-4.79 7.577 7.577 0 0 1 -.18-1.19l-1.37-19.82z" fill="#4b5d63"/><g fill="#f8ec7d"><path d="m368.27 413.61a6 6 0 0 1 -6-6v-6.02a6 6 0 1 1 12 0v6.02a6 6 0 0 1 -6 6z"/><path d="m314.07 74.64h-23.63a6 6 0 0 1 0-12h23.63a6 6 0 0 1 0 12z"/><path d="m314.07 52.85h-23.63a6 6 0 0 1 0-12h23.63a6 6 0 0 1 0 12z"/></g><path d="m164.2 419.81a5.987 5.987 0 0 1 -4.413-1.933l-25.428-27.577a6 6 0 1 1 8.822-8.135l21.377 23.183 43.749-40.071a6 6 0 0 1 8.106 8.85l-48.16 44.109a5.978 5.978 0 0 1 -4.053 1.574z" fill="#2561a1"/></svg>