<svg height="512" viewBox="0 0 512 512" width="512" xmlns="http://www.w3.org/2000/svg"><g id="Fill_out_line" data-name="Fill out line"><path d="m144.47 158.59-16.47 49.41v57l-38.8 9.4-41.2-82.4v-40l40-16 54.91 21.96z" fill="#f6d0b1"/><path d="m104 104h112v80h-112z" fill="#90c937"/><path d="m88 136 40 16-24 48-24-16z" fill="#f6d0b1"/><path d="m480 320.57v18.04a65.224 65.224 0 0 1 -5.27 25.7l-30.12 70.28a155.82869 155.82869 0 0 0 -12.61 61.41h-191.67l-.08-16-.25-48-96 24-72-192 56-32 56 128 48.85-58.62a131.1058 131.1058 0 0 1 79.15-45.38h112a65.216 65.216 0 0 1 56 64.57z" fill="#8ccee9"/><path d="m344 232-32 24 8 24 40-32 32 32 32-24-24-24z" fill="#37a0c5"/><path d="m380 268-20 20h-16l-9.71-19.43 25.71-20.57z" fill="#e64042"/><path d="m360 288-1.14 16-3.89 54.4-1.74 24.37-1.23 17.23-48 40v-56l33.33-80 6.67-16z" fill="#e64042"/><path d="m400 336-69.25483 69.25483a64 64 0 0 1 -45.25484 18.74517h-61.49033v64h93.75022a102 102 0 0 0 72.12489-29.87511l29.99989-29.99989z" fill="#8ccee9"/><path d="m240 304h-16v-16a16 16 0 0 0 -32 0v16h-16v-16a32 32 0 0 1 64 0z" fill="#986342"/><path d="m224 304h-96l-8 120h112z" fill="#f0de9c"/><path d="m264 424h-32l-8-120h32z" fill="#f0c033"/><path d="m224 424v32l-15.26 3.82a142.252 142.252 0 0 1 -16.87 3.13 140.21011 140.21011 0 0 1 -61.45-6.14l-5.31-1.77a53.707 53.707 0 0 1 -31.06-26.94 15.31971 15.31971 0 0 1 26.45-15.35 25.26048 25.26048 0 0 0 21.02 11.25h29.15l-4.39-6.59a13.79359 13.79359 0 0 1 19.13-19.13z" fill="#f6d0b1"/><path d="m424 104v70.06a40.947 40.947 0 0 1 -12 28.97 40.977 40.977 0 0 0 -12 28.97v8h-48a72.00587 72.00587 0 0 1 -72-72v-64l80-56z" fill="#f6d0b1"/><path d="m416 161.12v-41.12l-48-48c-3.06 0-6.11.12-9.13.37a115.85359 115.85359 0 0 0 -72.81 33.57l-5.7 5.7q-.36-3.765-.36-7.64a80 80 0 1 1 136 57.12z" fill="#2f4054"/><path d="m336 184a7.97507 7.97507 0 0 1 -5.65674-2.34326l-8-8a7.99941 7.99941 0 0 1 -1.93262-8.18653l8-24a7.99989 7.99989 0 0 1 15.17872 5.05958l-6.43653 19.30957 4.50391 4.5039a8 8 0 0 1 -5.65674 13.65674z" fill="#f4c396"/><path d="m416 152 12.68629-12.68629a11.31372 11.31372 0 0 1 8-3.31371 11.31369 11.31369 0 0 1 11.31371 11.3137v2.0589a44.97052 44.97052 0 0 1 -13.17156 31.799 9.65683 9.65683 0 0 1 -6.82844 2.8284 9.65683 9.65683 0 0 1 -6.82842-2.82842l-5.17158-5.17158-8-16z" fill="#f6d0b1"/><path d="m296 128h24a8 8 0 0 0 0-16h-24a8 8 0 0 0 0 16z"/><path d="m352 128h24a8 8 0 0 0 0-16h-24a8 8 0 0 0 0 16z"/><path d="m367.15527 196.42236a7.99982 7.99982 0 0 0 -10.73291-3.57763 27.91375 27.91375 0 0 1 -24.84472 0 7.99984 7.99984 0 1 0 -7.15528 14.31054 43.98553 43.98553 0 0 0 39.15528 0 7.99926 7.99926 0 0 0 3.57763-10.73291z"/><circle cx="360" cy="144" r="8"/><circle cx="312" cy="144" r="8"/><path d="m330.34326 181.65674a7.99984 7.99984 0 0 0 11.31348-11.31348l-4.50391-4.5039 6.43653-19.30957a7.99989 7.99989 0 0 0 -15.17872-5.05958l-8 24a7.99941 7.99941 0 0 0 1.93262 8.18653z"/><path d="m470.09326 272.5918a73.22368 73.22368 0 0 0 -42.2492-24.06122l-19.69275-19.69275a32.72271 32.72271 0 0 1 9.50543-20.15179 48.85949 48.85949 0 0 0 10.94476-16.71534 17.52093 17.52093 0 0 0 11.88385-5.14258 52.62215 52.62215 0 0 0 15.51465-37.45556v-2.05908a19.34154 19.34154 0 0 0 -11.76422-17.7746 88.00986 88.00986 0 1 0 -172.23578-25.53888v64a80.09213 80.09213 0 0 0 46.91913 72.81085l-10.21063 7.658a139.74179 139.74179 0 0 0 -57.99219 25.10388l9.52832 12.85352a123.72553 123.72553 0 0 1 46.39081-21.22217l5.7752 17.32569a8.00013 8.00013 0 0 0 12.58692 3.71728l6.55841-5.2467 3.65106 7.30236-38.5918 92.62012a8.0014 8.0014 0 0 0 -.61523 3.07717v31.01111a56.58363 56.58363 0 0 1 -10.50977.98889h-59.06835l-36.57032-24.38037a21.78089 21.78089 0 0 0 -32.95544 24.38037h-15.37171a17.23657 17.23657 0 0 1 -14.37011-7.69043 23.31993 23.31993 0 0 0 -40.26123 23.36475 61.31786 61.31786 0 0 0 35.68847 30.95214l5.31055 1.77a148.15938 148.15938 0 0 0 82.78809 3.17969l5.31982-1.32987v21.75372a7.99977 7.99977 0 0 0 8 8h93.75a109.27835 109.27835 0 0 0 77.78174-32.21826l26.125-26.125-11.31348-11.31348-26.125 26.125a93.38646 93.38646 0 0 1 -66.46826 27.53174h-85.75v-48h53.49023a71.52742 71.52742 0 0 0 50.91163-21.08838l69.25488-69.25488-11.31348-11.31348-32.55737 32.55737 5.94311-71.31563 12.271-12.27146 6.34326 6.3432a7.99925 7.99925 0 0 0 10.45654.74316l29.23444-21.92584a57.52486 57.52486 0 0 1 45.96576 56.0943v18.04394a56.89866 56.89866 0 0 1 -4.627 22.54151l-30.12056 70.28219a162.98723 162.98723 0 0 0 -13.25244 64.564h16a147.0822 147.0822 0 0 1 11.9585-58.26123l30.1206-70.28177a72.81087 72.81087 0 0 0 5.9209-28.8447v-18.04394a73.23271 73.23271 0 0 0 -17.90674-47.97656zm-263.29394 179.46191a132.15511 132.15511 0 0 1 -73.84815-2.83642l-5.31055-1.76954a45.426 45.426 0 0 1 -26.437-22.9292 7.32016 7.32016 0 0 1 12.63819-7.334 33.20379 33.20379 0 0 0 27.6826 14.81545h24.861l2.95831 4.4375 13.3125-8.875-9.72412-14.58691a5.80036 5.80036 0 0 1 8.04394-8.04346l35.02396 23.34912v21.47235zm153.20068-420.05371a72.00989 72.00989 0 0 1 66.88391 98.66779 19.32957 19.32957 0 0 0 -2.88391 2.08172v-12.74951a7.99877 7.99877 0 0 0 -2.34326-5.65674l-43.92285-43.92285 5.42138-10.84277-14.31054-7.15528-5.84241 11.68488a122.81559 122.81559 0 0 0 -74.07489 28.40484 72.1078 72.1078 0 0 1 71.07257-60.51208zm-72 136v-52.68652l3.71582-3.71582a107.11988 107.11988 0 0 1 73.01856-31.54932l43.26562 43.26566v28.686a7.99981 7.99981 0 0 0 13.65674 5.65674l12.68652-12.68653a3.31388 3.31388 0 0 1 5.65674 2.34327v2.05908a36.73029 36.73029 0 0 1 -10.82812 26.14209 1.71484 1.71484 0 0 1 -2.34376 0l-5.17138-5.17139-11.31348 11.31348 3.66693 3.66693a32.89293 32.89293 0 0 1 -7.66693 12.04889 48.64874 48.64874 0 0 0 -14.34326 34.62744h-40a64.0727 64.0727 0 0 1 -64-64zm35.96143 98.58594-2.54834-7.64551 16.31939-12.24a79.79686 79.79686 0 0 0 9.64081 1.15594zm1.12695 133.0122a56.20715 56.20715 0 0 1 -13.08838 9.75544v-23.75348l37.33356-89.6001h1.97223l-7.03461 84.41534zm31.59814-119.59814h-7.74243l-4.61078-9.2215 15.07294-12.05829 9.28009 9.28zm36.064-10.563-21.43704-21.437h28.68652a7.961 7.961 0 0 0 3.751-.93549l8.06976 8.06977z"/><path d="m208 272a16.01833 16.01833 0 0 1 16 16v8h-16v-8a32 32 0 0 0 -64 0v8h-16a8.00017 8.00017 0 0 0 -7.98242 7.46777l-5.8667 88 15.96484 1.06446 5.36866-80.53223h8.51562v16h16v-16h32v16h16v-16h8.51544l6.43524 96.53223 15.96485-1.06446-6.36432-95.46777h15.96441l6.43506 96.53223 15.96485-1.06446-6.93311-104a8.00017 8.00017 0 0 0 -7.98242-7.46777h-16v-8a32.036 32.036 0 0 0 -32-32zm-48 24v-8a16 16 0 0 1 32 0v8z"/><path d="m112.49072 349.19092-30.60888-81.62354 42.35742-24.20459 10.43164 23.84375 14.6582-6.41308-13.3291-30.46646v-21.02866l5.766-17.29834h74.234a7.99977 7.99977 0 0 0 8-8v-80a7.99977 7.99977 0 0 0 -8-8h-112a7.99977 7.99977 0 0 0 -8 8v26.5838l-5.02881-2.01153a8.00243 8.00243 0 0 0 -5.94238 0l-40 16a7.99975 7.99975 0 0 0 -5.02881 7.42773v40a7.99583 7.99583 0 0 0 .84473 3.57764l29.94891 59.89776-2.76288 1.5788a8.00047 8.00047 0 0 0 -3.52148 9.75488l33 88zm-.49072-237.19092h96v64h-83.05591l10.21118-20.42236a7.999 7.999 0 0 0 -4.18408-11.00537l-18.97119-7.58851zm-56 78.11133v-32.69483l32-12.80029 28.95654 11.58252-16.05908 32.11816-16.46-10.97314-8.875 13.3125 24 16a7.99968 7.99968 0 0 0 11.59277-3.07861l5.78886-11.57764h7.95661l-4.49006 13.47021a7.99908 7.99908 0 0 0 -.41064 2.52979v19.35748l-35.29333 20.16761z"/><path d="m128 120h16v16h-16z"/><path d="m144 144h24v16h-24z"/><circle cx="184" cy="128" r="8"/></g></svg>